<?xml version="1.0" encoding="UTF-8"?>
<svg version="1.1" xmlns="http://www.w3.org/2000/svg" width="58" height="44">
<path d="M0 0 C0.69416016 -0.00386719 1.38832031 -0.00773438 2.10351562 -0.01171875 C5.85750584 -0.00458866 9.2781093 0.33021807 12.9375 1.125 C11.41059158 5.32533221 9.88055785 9.52450866 8.34765625 13.72265625 C7.82694481 15.15007914 7.30707886 16.57781076 6.78808594 18.00585938 C6.0406507 20.0620222 5.29015165 22.11704453 4.5390625 24.171875 C4.08869629 25.40776367 3.63833008 26.64365234 3.17431641 27.91699219 C2.20972651 30.41890912 1.19991822 32.76505084 -0.0625 35.125 C-4.16665189 35.15398097 -8.27077753 35.1717922 -12.375 35.1875 C-13.54224609 35.19587891 -14.70949219 35.20425781 -15.91210938 35.21289062 C-17.03037109 35.21611328 -18.14863281 35.21933594 -19.30078125 35.22265625 C-20.8482605 35.23051147 -20.8482605 35.23051147 -22.42700195 35.23852539 C-25.0625 35.125 -25.0625 35.125 -28.0625 34.125 C-25.95704315 26.8526005 -23.6066503 19.69281597 -21.0625 12.5625 C-20.71960938 11.56669922 -20.37671875 10.57089844 -20.0234375 9.54492188 C-19.68570312 8.60068359 -19.34796875 7.65644531 -19 6.68359375 C-18.69964844 5.83079834 -18.39929687 4.97800293 -18.08984375 4.09936523 C-17.0625 2.125 -17.0625 2.125 -14.0625 1.125 C-9.3624503 0.15351957 -4.78199154 -0.02678987 0 0 Z " fill="#060607" transform="translate(37.0625,2.875)"/>
<path d="M0 0 C0.73605469 0.00451172 1.47210938 0.00902344 2.23046875 0.01367188 C4.02868158 0.02534858 5.82685197 0.04327989 7.625 0.0625 C7.625 0.3925 7.625 0.7225 7.625 1.0625 C3.335 1.0625 -0.955 1.0625 -5.375 1.0625 C-5.77332031 2.45210938 -6.17164062 3.84171875 -6.58203125 5.2734375 C-8.45653443 11.52178144 -10.74125998 17.59378219 -13.0625 23.6875 C-13.47822266 24.78707031 -13.89394531 25.88664062 -14.32226562 27.01953125 C-15.33681911 29.70168415 -16.35444606 32.38262583 -17.375 35.0625 C-18.633125 35.083125 -19.89125 35.10375 -21.1875 35.125 C-22.24904297 35.14240234 -22.24904297 35.14240234 -23.33203125 35.16015625 C-25.375 35.0625 -25.375 35.0625 -28.375 34.0625 C-26.26954315 26.7901005 -23.9191503 19.63031597 -21.375 12.5 C-21.03210938 11.50419922 -20.68921875 10.50839844 -20.3359375 9.48242188 C-19.99820312 8.53818359 -19.66046875 7.59394531 -19.3125 6.62109375 C-19.01214844 5.76829834 -18.71179687 4.91550293 -18.40234375 4.03686523 C-17.375 2.0625 -17.375 2.0625 -14.375 1.0625 C-9.53336149 0.04731773 -4.91754534 -0.05780117 0 0 Z " fill="#BBC0C7" transform="translate(37.375,2.9375)"/>
</svg>
