<?xml version="1.0" encoding="UTF-8"?>
<svg version="1.1" xmlns="http://www.w3.org/2000/svg" width="58" height="44">
<path d="M0 0 C19.14 0 38.28 0 58 0 C58 14.52 58 29.04 58 44 C38.86 44 19.72 44 0 44 C0 29.48 0 14.96 0 0 Z " fill="#ECECEC" transform="translate(0,0)"/>
<path d="M0 0 C5.61 0 11.22 0 17 0 C14.79424871 7.69514526 12.16133776 15.14623294 9.3125 22.625 C8.68891602 24.27435547 8.68891602 24.27435547 8.05273438 25.95703125 C7.0381866 28.63916905 6.01952139 31.3197488 5 34 C-0.61 34 -6.22 34 -12 34 C-9.79424871 26.30485474 -7.16133776 18.85376706 -4.3125 11.375 C-3.89677734 10.27542969 -3.48105469 9.17585937 -3.05273438 8.04296875 C-2.0381866 5.36083095 -1.01952139 2.6802512 0 0 Z " fill="#030303" transform="translate(32,4)"/>
<path d="M0 0 C3.96 0 7.92 0 12 0 C9.79424871 7.69514526 7.16133776 15.14623294 4.3125 22.625 C3.89677734 23.72457031 3.48105469 24.82414062 3.05273438 25.95703125 C2.0381866 28.63916905 1.01952139 31.3197488 0 34 C-3.96 34 -7.92 34 -12 34 C-9.79424871 26.30485474 -7.16133776 18.85376706 -4.3125 11.375 C-3.89677734 10.27542969 -3.48105469 9.17585937 -3.05273438 8.04296875 C-2.0381866 5.36083095 -1.01952139 2.6802512 0 0 Z " fill="#BABFC7" transform="translate(20,4)"/>
</svg>
